<svg xmlns="http://www.w3.org/2000/svg" xmlns:xlink="http://www.w3.org/1999/xlink" id="Layer_1" viewBox="0 0 140.09 162.27"><defs><style>.cls-1{fill:url(#linear-gradient)}.cls-2{fill:url(#linear-gradient-8)}.cls-3{fill:url(#linear-gradient-9)}.cls-4{fill:url(#linear-gradient-3)}.cls-5{fill:url(#linear-gradient-4)}.cls-6{fill:url(#linear-gradient-2)}.cls-7{fill:url(#linear-gradient-6)}.cls-8{fill:url(#linear-gradient-7)}.cls-9{fill:url(#linear-gradient-5)}.cls-10{fill:url(#linear-gradient-14)}.cls-11{fill:url(#linear-gradient-13)}.cls-12{fill:url(#linear-gradient-12)}.cls-13{fill:url(#linear-gradient-10)}.cls-14{fill:url(#linear-gradient-11)}</style><linearGradient id="linear-gradient" x1="-69.29" x2="-69.29" y1="-2051.92" y2="-1852.01" gradientTransform="translate(-209.76 -1843.45) rotate(-8.75) scale(1 -1)" gradientUnits="userSpaceOnUse"><stop offset="0" stop-color="#faed1e"/><stop offset="1" stop-color="#f15b2b"/></linearGradient><linearGradient id="linear-gradient-2" x1="14.56" x2="14.56" y1="-2051.92" y2="-1852.01" xlink:href="#linear-gradient"/><linearGradient id="linear-gradient-3" x1="-28.33" x2="-28.33" y1="-2051.92" y2="-1852.01" xlink:href="#linear-gradient"/><linearGradient id="linear-gradient-4" x1="-48.68" x2="-48.68" y1="-2051.92" y2="-1852.01" xlink:href="#linear-gradient"/><linearGradient id="linear-gradient-5" x1="-69.26" x2="-69.26" y1="-2051.92" y2="-1852.01" xlink:href="#linear-gradient"/><linearGradient id="linear-gradient-6" x1="14.54" x2="14.54" y1="-2051.92" y2="-1852.01" xlink:href="#linear-gradient"/><linearGradient id="linear-gradient-7" x1="-28.27" x2="-28.27" y1="-2051.92" y2="-1852.01" xlink:href="#linear-gradient"/><linearGradient id="linear-gradient-8" x1="-48.73" x2="-48.73" y1="-2051.92" y2="-1852.01" xlink:href="#linear-gradient"/><linearGradient id="linear-gradient-9" x1="-73.01" x2="-73.01" y1="-2048.04" y2="-1858.44" xlink:href="#linear-gradient"/><linearGradient id="linear-gradient-10" x1="-65.45" x2="-65.45" y1="-2053.3" y2="-1849.73" xlink:href="#linear-gradient"/><linearGradient id="linear-gradient-11" x1="-52.46" x2="-52.46" y1="-2057.92" y2="-1842.08" xlink:href="#linear-gradient"/><linearGradient id="linear-gradient-12" x1="-44.89" x2="-44.89" y1="-2050.74" y2="-1853.97" xlink:href="#linear-gradient"/><linearGradient id="linear-gradient-13" x1="-32.04" x2="-32.04" y1="-2042.47" y2="-1867.67" xlink:href="#linear-gradient"/><linearGradient id="linear-gradient-14" x1="-24.42" x2="-24.42" y1="-2044.99" y2="-1863.49" xlink:href="#linear-gradient"/></defs><polygon points="35.11 160.18 33.19 147.43 20.09 149.17 22.19 162.27 35.11 160.18" class="cls-1"/><polygon points="136.95 123.85 134.85 110.92 77.91 119.65 79.83 132.58 136.95 123.85" class="cls-6"/><polygon points="59.57 135.72 72.49 133.8 70.57 120.88 57.47 122.97 59.57 135.72" class="cls-4"/><polygon points="55.55 157.03 53.45 144.11 40.53 146.2 42.45 159.13 55.55 157.03" class="cls-5"/><polygon points="17.12 129.09 19.04 142.01 31.97 140.09 30.05 126.99 17.12 129.09" class="cls-9"/><polygon points="80.88 139.92 82.97 153.02 140.09 144.11 138 131.36 80.88 139.92" class="cls-7"/><polygon points="62.71 155.99 75.64 154.07 73.54 140.96 60.79 143.06 62.71 155.99" class="cls-8"/><polygon points="37.38 125.94 39.48 139.04 52.23 136.95 50.31 124.02 37.38 125.94" class="cls-2"/><polygon points="21.49 121.05 5.59 17.29 0 18.34 16.07 121.75 21.49 121.05" class="cls-3"/><polygon points="29 119.65 11.88 8.56 6.29 9.61 23.58 120.7 29 119.65" class="cls-13"/><polygon points="41.92 117.91 23.76 0 18.17 .87 36.16 118.61 41.92 117.91" class="cls-14"/><polygon points="49.26 116.68 32.67 9.26 27.25 10.13 43.85 117.56 49.26 116.68" class="cls-12"/><polygon points="62.01 114.76 47.34 19.22 41.92 20.09 56.42 115.64 62.01 114.76" class="cls-11"/><polygon points="69.52 113.54 54.15 14.5 48.74 15.37 64.11 114.24 69.52 113.54" class="cls-10"/></svg>